<?xml version="1.0" encoding="UTF-8"?><svg version="1.1" width="13px" height="14px" viewBox="0 0 13.0 14.0" xmlns="http://www.w3.org/2000/svg" xmlns:xlink="http://www.w3.org/1999/xlink"><defs><clipPath id="i0"><path d="M1440,0 L1440,796 L0,796 L0,0 L1440,0 Z"></path></clipPath><clipPath id="i1"><path d="M8.44146469,0 C10.2808088,0 11.7718918,1.49108302 11.7718918,3.33042714 L11.7718918,6.98716553 C11.7718918,7.31853638 11.5032627,7.58716553 11.1718918,7.58716553 C10.840521,7.58716553 10.5718918,7.31853638 10.5718918,6.98716553 L10.5718918,3.33042714 C10.5718918,2.15382472 9.61806711,1.2 8.44146469,1.2 L3.33042714,1.2 C2.15382472,1.2 1.2,2.15382472 1.2,3.33042714 L1.2,9.81419057 C1.2,10.990793 2.15382472,11.9446177 3.33042714,11.9446177 L6.80224305,11.9446177 C7.13361389,11.9446177 7.40224305,12.2132469 7.40224305,12.5446177 C7.40224305,12.8759886 7.13361389,13.1446177 6.80224305,13.1446177 L3.33042714,13.1446177 C1.49108302,13.1446177 0,11.6535347 0,9.81419057 L0,3.33042714 C0,1.49108302 1.49108302,0 3.33042714,0 L8.44146469,0 Z M5.7672306,5.97230885 C6.09860145,5.97230885 6.3672306,6.240938 6.3672306,6.57230885 C6.3672306,6.9036797 6.09860145,7.17230885 5.7672306,7.17230885 L3.1594762,7.17230885 C2.82810535,7.17230885 2.5594762,6.9036797 2.5594762,6.57230885 C2.5594762,6.240938 2.82810535,5.97230885 3.1594762,5.97230885 L5.7672306,5.97230885 Z M8.374985,3.57470723 C8.70635585,3.57470723 8.974985,3.84333638 8.974985,4.17470723 C8.974985,4.50607808 8.70635585,4.77470723 8.374985,4.77470723 L3.1594762,4.77470723 C2.82810535,4.77470723 2.5594762,4.50607808 2.5594762,4.17470723 C2.5594762,3.84333638 2.82810535,3.57470723 3.1594762,3.57470723 L8.374985,3.57470723 Z"></path></clipPath><clipPath id="i2"><path d="M3.02774728,0.285863635 L3.49395576,1.46703212 C3.53969394,1.58338363 3.63197272,1.67566242 3.74832424,1.7214006 L4.92949274,2.18760909 C5.31064425,2.33806364 5.31064425,2.87769395 4.92949274,3.02774728 L3.74832424,3.49395576 C3.63197273,3.53969394 3.53969394,3.63197272 3.49395576,3.74832424 L3.02774728,4.92949274 C2.87729273,5.31064425 2.33766242,5.31064425 2.18760909,4.92949274 L1.72099939,3.74832424 C1.67507978,3.63197714 1.58297801,3.53987537 1.46663091,3.49395576 L0.285863635,3.02774728 C-0.0952878782,2.87729273 -0.0952878782,2.33766242 0.285863635,2.18760909 L1.46703212,1.72099939 C1.58338363,1.67526121 1.67566242,1.58298242 1.7214006,1.46663091 L2.18760909,0.285462419 C2.33806364,-0.0952878782 2.87769395,-0.0952878782 3.02774728,0.285863635 Z"></path></clipPath></defs><g transform="translate(-502.0 -257.0)"><g clip-path="url(#i0)"><g transform="translate(502.7561277658438 257.8163854729327)"><g clip-path="url(#i1)"><polygon points="0,0 11.7718918,0 11.7718918,13.1446177 0,13.1446177 0,0" stroke="none" fill="#00143F"></polygon></g><g transform="translate(7.025726168326856 7.915343630345889)"><g clip-path="url(#i2)"><polygon points="0,0 5.21535637,0 5.21535637,5.21535637 0,5.21535637 0,0" stroke="none" fill="#2669EC"></polygon></g></g></g></g></g></svg>